<?xml version="1.0" standalone="no"?>
<!DOCTYPE svg PUBLIC "-//W3C//DTD SVG 1.1//EN" "http://www.w3.org/Graphics/SVG/1.1/DTD/svg11.dtd" >
<svg xmlns="http://www.w3.org/2000/svg">
<metadata>
This is a custom SVG webfont generated by Font Squirrel.
Copyright   : Copyright c ParaType 1999 All rights reserved
</metadata>
<defs>
<font id="DINCondensedCRegular" horiz-adv-x="839" >
<font-face units-per-em="2048" ascent="1620" descent="-428" />
<missing-glyph horiz-adv-x="477" />
<glyph unicode=" "  horiz-adv-x="477" />
<glyph unicode="&#x09;" horiz-adv-x="477" />
<glyph unicode="&#xa0;" horiz-adv-x="477" />
<glyph unicode="!" horiz-adv-x="430" d="M92 1434h246l-47 -1076h-164zM96 0v225h226v-225h-226z" />
<glyph unicode="&#x22;" horiz-adv-x="702" d="M92 1405h193l-56 -504h-82zM418 1405h192l-55 -504h-82z" />
<glyph unicode="#" horiz-adv-x="907" d="M51 428l2 133h131l43 318h-112v131h131l59 424h154l-60 -424h189l59 424h154l-60 -424h115l-2 -131h-131l-43 -318h113l-2 -133h-132l-59 -428h-154l60 428h-189l-59 -428h-154l60 428h-113zM338 561h188l43 318h-188z" />
<glyph unicode="$" horiz-adv-x="931" d="M92 367v47h205v-39q0 -88 37 -127q29 -33 84 -43v459l-80 26q-143 47 -197 160q-33 70 -32 209v20q0 164 110 267q82 76 199 86v165h98v-165q129 -6 213 -95q96 -100 96 -274v-47h-204v39q0 88 -37 131q-29 33 -68 41v-393l66 -23q137 -47 194 -123q63 -86 64 -248v-28 q0 -383 -324 -410v-166h-98v166q-166 10 -256 123q-70 90 -70 242zM313 1049q0 -84 35 -129q23 -29 70 -52v359q-49 -14 -76 -56q-29 -40 -29 -122zM516 205q53 10 84 47q35 41 35 141v33q0 104 -35 147q-25 33 -84 56v-424z" />
<glyph unicode="%" horiz-adv-x="1282" d="M92 903v314q0 106 62 163q57 53 155.5 53.5t155.5 -53.5q61 -57 61 -163v-314q0 -109 -61 -164q-57 -53 -155.5 -53t-155.5 53q-62 55 -62 164zM252 901q0 -33 12 -47q18 -18 45 -18t45 18q12 14 13 47v318q0 33 -13 47q-18 18 -44.5 18t-45.5 -18q-12 -14 -12 -47v-318z M264 0l590 1434h156l-590 -1434h-156zM756 217v313q0 109 61 164q57 53 155.5 53.5t155.5 -53.5q61 -55 62 -164v-313q0 -106 -62 -164q-57 -53 -155.5 -53t-155.5 53q-61 58 -61 164zM915 215q0 -33 13 -47q18 -18 44.5 -18t45.5 18q12 14 12 47v317q0 33 -12 48 q-18 18 -45 18t-45 -18q-12 -14 -13 -48v-317z" />
<glyph unicode="&#x26;" horiz-adv-x="1003" d="M41 334q0 160 72 266q57 86 168 170q-51 74 -80 127q-68 121 -68 254q0 137 84 219q84 84 236 84q125 0 211 -57q111 -76 110 -223q0 -127 -86 -244q-53 -74 -166 -168l232 -367q25 31 43 88q20 68 26 97l170 -48q-14 -68 -49 -155q-29 -74 -84 -135l154 -242h-219 l-70 111q-51 -55 -98 -82q-90 -49 -219 -49q-182 0 -281 116q-86 99 -86 238zM246 356q0 -72 35 -120q49 -72 153 -72q68 0 123 33q41 25 61 53l-231 371q-51 -39 -94 -99q-47 -68 -47 -166zM330 1153q0 -113 76 -211l30 -41q80 70 115 154q27 57 27 108q0 61 -35 97 q-33 33 -88.5 32.5t-87.5 -32.5q-37 -35 -37 -107z" />
<glyph unicode="'" horiz-adv-x="438" d="M123 1405h192l-55 -504h-82z" />
<glyph unicode="(" horiz-adv-x="526" d="M102 508q0 242 56.5 458t183.5 468h143q-84 -233 -125 -435q-53 -254 -53 -491.5t53 -491.5q41 -201 125 -434h-143q-127 252 -183.5 468t-56.5 458z" />
<glyph unicode=")" horiz-adv-x="526" d="M41 -418q84 233 125 434q53 254 53 491.5t-53 491.5q-41 201 -125 435h143q127 -252 183.5 -468t56.5 -458t-56.5 -458t-183.5 -468h-143z" />
<glyph unicode="*" horiz-adv-x="804" d="M92 1012l182 102l-178 103l58 108l180 -102l-4 211h135l-4 -211l184 112l68 -121l-195 -100l195 -94l-68 -129l-188 117l8 -220h-137l6 220l-178 -113z" />
<glyph unicode="+" horiz-adv-x="1011" d="M102 514v164h322v321h164v-321h321v-164h-321v-321h-164v321h-322z" />
<glyph unicode="," horiz-adv-x="450" d="M102 -205v430h226v-225z" />
<glyph unicode="-" horiz-adv-x="643" d="M92 535v184h459v-184h-459z" />
<glyph unicode="." horiz-adv-x="450" d="M102 0v225h226v-225h-226z" />
<glyph unicode="/" horiz-adv-x="692" d="M-31 0l590 1434h164l-590 -1434h-164z" />
<glyph unicode="0" horiz-adv-x="856" d="M113 309v815q0 176 98 260q82 70 217 70q145 0 238 -94q78 -82 77 -236v-815q0 -80 -18 -142.5t-82 -115.5q-86 -72 -215 -71.5t-209 65.5q-106 86 -106 264zM317 338q0 -80 25 -115q29 -43 86 -43t86 43q25 39 25 115v758q0 82 -25 114q-29 43 -86 43q-55 0 -86 -43 q-25 -33 -25 -114v-758z" />
<glyph unicode="1" horiz-adv-x="856" d="M154 1055v211l229 168h197v-1434h-205v1214z" />
<glyph unicode="2" horiz-adv-x="851" d="M111 0v188l362 668q35 72 45 107q16 61 17 122v31q0 68 -31 105q-29 33 -80 32q-61 0 -90 -49q-18 -33 -19 -117v-55h-204v84q0 162 88 254q82 84 229 84q158 0 238 -98q74 -90 73 -232v-75q0 -74 -18 -131q-14 -49 -51 -115l-324 -608h393v-195h-628z" />
<glyph unicode="3" horiz-adv-x="856" d="M113 264v146h204v-95q0 -63 27 -98q29 -37 86 -37q109 0 109 123v213q0 70 -29 102q-25 29 -90 29h-49v182h47q57 0 88 31q33 33 33 94v183q0 53 -33 86q-27 31 -82 30q-45 0 -76 -36.5t-31 -104.5v-82h-204v125q0 145 100 229q82 70 209 70q137 0 217 -65 q104 -84 104 -234v-207q0 -160 -125 -211q78 -33 101.5 -99.5t23.5 -158.5v-137q0 -102 -14 -162.5t-70 -116.5q-84 -84 -241 -83q-143 0 -223 77q-82 78 -82 207z" />
<glyph unicode="4" horiz-adv-x="856" d="M74 221v172l305 1041h201l-299 -1026h198v405h205v-407h98v-185h-98v-221h-205v221h-405z" />
<glyph unicode="5" horiz-adv-x="856" d="M117 283v63h205v-39q0 -61 20 -88q27 -39 84 -39q53 0 82 35q27 33 27 92v311q0 61 -25 91q-25 31 -72 30q-49 0 -80 -32q-18 -18 -32 -52h-189v779h602v-185h-397v-377q29 27 66 41q47 18 96 19q109 0 176 -74q59 -66 59 -176v-387q0 -143 -77 -225q-82 -90 -230 -90 q-133 0 -221 77q-94 85 -94 226z" />
<glyph unicode="6" horiz-adv-x="856" d="M117 299v209q0 39 3 70.5t13 65.5t15.5 50.5t21.5 55t20 49.5l256 635h220l-254 -621q31 25 108 25q96 0 157.5 -74t61.5 -189v-280q0 -152 -82 -233.5t-233 -81.5q-129 0 -215 79q-92 88 -92 240zM322 301q0 -55 22 -84q31 -37 78 -37q57 0 86 35q27 31 27 104v234 q0 55 -23 82q-29 35 -74 35q-47 0 -80 -33q-37 -37 -36 -92v-244z" />
<glyph unicode="7" horiz-adv-x="860" d="M129 1075v359h614v-189l-327 -1245h-207l326 1243h-222v-168h-184z" />
<glyph unicode="8" horiz-adv-x="856" d="M113 309v180v32v35q0 7 2 30.5t5 34t10 30t17.5 32.5t25.5 29.5t36 30.5q-96 94 -96 220v161q0 25 2 50.5t19.5 81t47 95.5t94 71.5t152.5 31.5t152.5 -31.5t94.5 -71.5t47 -95.5t19 -81t2 -50.5v-161q0 -125 -96 -220q20 -14 35.5 -30.5t26 -29.5t17.5 -32.5t10 -30 t5 -34t2 -30.5v-35v-32v-180q0 -25 -2 -50.5t-19 -80.5t-47 -95t-94.5 -71.5t-152.5 -31.5t-152.5 31.5t-94 71.5t-47 95t-19.5 80.5t-2 50.5zM317 338q0 -158 111 -158t111 158v184q0 158 -111 158t-111 -158v-184zM317 987q0 -158 111 -158t111 158v109q0 158 -111 157.5 t-111 -157.5v-109z" />
<glyph unicode="9" horiz-adv-x="856" d="M117 858v281q0 152 82 233.5t233 81.5q129 0 215 -80q92 -88 92 -239v-209q0 -39 -3 -71t-13 -65.5t-15.5 -50t-21.5 -55.5t-20 -49l-256 -635h-220l254 621q-31 -25 -108 -25q-96 0 -157.5 73.5t-61.5 188.5zM322 881q0 -55 22 -82q29 -35 74 -35q47 0 80 33 q37 37 37 92v244q0 55 -23 84q-31 37 -78 36q-57 0 -86 -34q-27 -31 -26 -105v-233z" />
<glyph unicode=":" horiz-adv-x="440" d="M102 0v215h215v-215h-215zM102 791v215h215v-215h-215z" />
<glyph unicode=";" horiz-adv-x="440" d="M102 -205v420h215v-215zM102 791v215h215v-215h-215z" />
<glyph unicode="&#x3c;" horiz-adv-x="960" d="M51 559v103l807 374v-149l-594 -277l594 -276v-150z" />
<glyph unicode="=" horiz-adv-x="1011" d="M102 289v164h807v-164h-807zM102 575v164h807v-164h-807z" />
<glyph unicode="&#x3e;" horiz-adv-x="960" d="M102 184v150l594 276l-594 277v149l807 -374v-103z" />
<glyph unicode="?" horiz-adv-x="724" d="M41 1036v123q0 74 34 137.5t81 98.5q80 59 190 59q152 0 236 -78q92 -80 92 -215v-112q0 -137 -47 -211l-144 -228q-31 -47 -30 -139v-117h-205v170q0 70 9 99.5t60 109.5l117 185q35 55 35 135v86q0 55 -31 86q-29 29 -86 28q-55 0 -82 -34q-25 -31 -24 -84v-99h-205z M238 0v225h225v-225h-225z" />
<glyph unicode="@" horiz-adv-x="1366" d="M123 309v492q0 338 104 469q131 164 447 164q317 0 454 -146q66 -70 90.5 -167t24.5 -247v-448q0 -141 -35 -203q-49 -88 -178 -88q-76 0 -125 37q-63 47 -65 133q-6 -66 -68 -117q-66 -53 -141 -53q-115 0 -174 72q-57 70 -58 221v283q0 188 74 258q51 47 131 47 q61 0 115 -29q41 -23 78 -65v79h170v-643q0 -74 49 -73q33 0 45 31.5t12 107.5v450q0 221 -86 308q-102 102 -305 102q-285 0 -356 -194q-33 -106 -33 -289v-496q0 -223 80 -311q90 -96 303 -96q74 0 143 12q68 12 148 41l39 -131q-94 -41 -201 -60q-72 -12 -162 -12 q-297 0 -420 143q-45 51 -68.5 132t-27.5 138.5t-4 147.5zM569 426q0 -70 25 -102q29 -39 78 -39q63 0 92 49q23 41 22 162v215q0 82 -22 114q-31 41 -82 41q-45 0 -76 -32q-37 -41 -37 -129v-279z" />
<glyph unicode="A" horiz-adv-x="878" d="M20 0l314 1434h180l313 -1434h-204l-68 307h-262l-68 -307h-205zM313 489h217l-110 545z" />
<glyph unicode="B" horiz-adv-x="923" d="M123 0v1434h276q172 0 271 -70q131 -94 131 -330q0 -150 -62 -223q-31 -37 -77 -66q59 -27 98 -90q41 -72 41 -180v-108q0 -207 -123 -299q-88 -68 -244 -68h-311zM328 184h92q94 0 139 64q37 49 37 145v68q0 111 -55 157q-45 37 -109 37h-104v-471zM328 840h98 q86 0 131 53q39 45 39 123v88q0 55 -39 98q-47 47 -133 47h-96v-409z" />
<glyph unicode="C" horiz-adv-x="888" d="M113 346v744q0 190 104 280q92 84 234 84q152 0 247 -92q92 -92 93 -238v-98h-199v82q0 55 -27 94q-37 51 -106 51q-68 0 -107 -47q-35 -43 -35 -141v-707q0 -90 27 -127q37 -51 105 -51q78 0 114 49q29 41 29 117v51h205v-59q0 -172 -86 -262q-88 -96 -269 -96 q-166 0 -258 108q-35 39 -51 92t-18 82t-2 84z" />
<glyph unicode="D" horiz-adv-x="921" d="M123 0v1434h276q205 0 299 -86q111 -102 111 -310v-632q0 -193 -92 -293q-102 -113 -289 -113h-305zM328 201h92q90 0 137 49q47 51 47 168v635q0 84 -39 133q-39 47 -133 47h-104v-1032z" />
<glyph unicode="E" horiz-adv-x="808" d="M123 0v1434h608v-195h-403v-422h356v-184h-356v-438h409v-195h-614z" />
<glyph unicode="F" horiz-adv-x="796" d="M123 0v1434h622v-195h-417v-430h366v-195h-366v-614h-205z" />
<glyph unicode="G" horiz-adv-x="944" d="M115 332v725q0 168 67 262q96 135 289 135q162 0 254 -92q104 -104 104 -281v-57h-204v72q0 76 -41 116.5t-111 40.5q-72 0 -115 -51q-39 -47 -39 -151v-672q0 -102 35 -148q41 -51 115 -51q76 0 119 58q37 47 37 168v192h-174v184h378v-782h-102l-53 111 q-35 -63 -99 -97q-63 -35 -159 -34q-145 0 -228 102q-73 92 -73 250z" />
<glyph unicode="H" horiz-adv-x="931" d="M123 0v1434h205v-617h276v617h205v-1434h-205v633h-276v-633h-205z" />
<glyph unicode="I" horiz-adv-x="450" d="M123 0v1434h205v-1434h-205z" />
<glyph unicode="J" horiz-adv-x="739" d="M-20 102l157 134q39 -55 115 -56q80 0 121 53q39 51 39 146v1055h204v-1028q0 -68 -4 -113t-28.5 -109.5t-71.5 -111.5q-92 -92 -262 -92q-166 -1 -270 122z" />
<glyph unicode="K" horiz-adv-x="972" d="M123 0v1434h205v-691l325 691h215l-290 -588l344 -846h-224l-243 641l-127 -221v-420h-205z" />
<glyph unicode="L" horiz-adv-x="833" d="M123 0v1434h205v-1239h434v-195h-639z" />
<glyph unicode="M" horiz-adv-x="1214" d="M123 0v1434h205l282 -791h8l269 791h205v-1434h-205v897h-10l-215 -647h-109l-215 647h-10v-897h-205z" />
<glyph unicode="N" horiz-adv-x="997" d="M123 0v1434h205l342 -902v902h204v-1434h-204l-342 901v-901h-205z" />
<glyph unicode="O" horiz-adv-x="946" d="M115 377v680q0 100 19.5 171.5t86.5 133.5q98 92 252 92t252 -92q68 -61 87 -133t19 -172v-680q0 -100 -19 -172t-87 -133q-98 -92 -252 -92t-252 92q-68 61 -87 133t-19 172zM319 346q0 -82 43 -125q41 -41 111 -41t111 41q43 43 43 125v741q0 82 -43 125 q-41 41 -111 41t-111 -41q-43 -43 -43 -125v-741z" />
<glyph unicode="P" horiz-adv-x="880" d="M123 0v1434h305q193 0 287 -95q104 -106 104 -327v-41q0 -188 -88 -291q-98 -113 -282 -113h-121v-567h-205zM328 752h110q88 0 137 53q20 23 29.5 51.5t9.5 41.5v54v95q0 121 -55 165q-45 37 -160 37h-71v-497z" />
<glyph unicode="Q" horiz-adv-x="987" d="M123 377v680q0 100 19.5 171.5t86.5 133.5q98 92 252 92t252 -92q68 -61 87.5 -133t19.5 -172v-680q0 -125 -33 -193l129 -102l-105 -127l-126 100q-84 -76 -217 -76q-3 0 -7 1q-156 4 -252 92q-68 61 -87 133t-19 172zM328 346q0 -82 43 -125q41 -41 110 -41q31 0 56 8 l-99 78l105 127l92 -74v768q0 82 -43 125q-41 41 -110.5 41t-110.5 -41q-43 -43 -43 -125v-741z" />
<glyph unicode="R" horiz-adv-x="911" d="M123 0v1434h268q84 0 123 -2t111.5 -29t117.5 -82q76 -92 76 -250v-108q0 -141 -76 -228q-43 -47 -108 -73l225 -662h-213l-198 618h-121v-618h-205zM328 803h116q78 0 127 47q43 41 43 129v102q0 84 -47 131q-37 37 -133 37h-106v-446z" />
<glyph unicode="S" horiz-adv-x="901" d="M92 346v47h205v-39q0 -84 33 -127q39 -47 112 -47q88 0 129 51q33 41 33 142v53q0 102 -33 147q-27 37 -98 64l-149 53q-141 51 -189 160q-31 70 -31 209v41q0 164 107 266q90 88 248 88q156 0 249 -97t93 -274v-47h-205v39q0 88 -35 131q-39 47 -108 47q-61 0 -101 -39 q-43 -45 -43 -145q0 -102 33 -149q23 -35 94 -64l125 -45q133 -49 187 -123q61 -84 61 -248v-49q0 -215 -98 -317q-90 -94 -267 -94q-197 0 -286 124q-66 88 -66 242z" />
<glyph unicode="T" horiz-adv-x="794" d="M41 1239v195h713v-195h-254v-1239h-205v1239h-254z" />
<glyph unicode="U" horiz-adv-x="929" d="M123 377v1057h205v-1088q0 -76 35.5 -121t101 -45t101.5 45t36 121v1088h205v-1057q0 -113 -31 -195t-83 -124t-108.5 -60t-120 -18t-119.5 18t-108.5 60t-83 124t-30.5 195z" />
<glyph unicode="V" horiz-adv-x="827" d="M20 1434h226l166 -992h8l172 992h215l-303 -1434h-180z" />
<glyph unicode="W" horiz-adv-x="1222" d="M31 1434h217l114 -893h9l164 893h153l164 -893h12l111 893h217l-225 -1434h-185l-164 926h-14l-164 -926h-184z" />
<glyph unicode="X" horiz-adv-x="894" d="M31 0l307 758l-275 676h218l163 -451l166 451h226l-283 -676l311 -758h-217l-203 518l-188 -518h-225z" />
<glyph unicode="Y" horiz-adv-x="847" d="M20 1434h226l178 -570h12l174 570h217l-301 -830v-604h-204v610z" />
<glyph unicode="Z" horiz-adv-x="829" d="M92 0v180l420 1069h-391v185h616v-158l-430 -1092h420v-184h-635z" />
<glyph unicode="[" horiz-adv-x="516" d="M123 -418v1852h373v-152h-189v-1548h187v-152h-371z" />
<glyph unicode="\" horiz-adv-x="692" d="M-31 1434h164l590 -1434h-164z" />
<glyph unicode="]" horiz-adv-x="606" d="M123 1282v152h373v-1852h-371v152h186v1548h-188z" />
<glyph unicode="^" horiz-adv-x="1208" d="M92 555l445 879h135l444 -879h-164l-348 694l-348 -694h-164z" />
<glyph unicode="_" horiz-adv-x="1095" d="M0 -291h1096v-127h-1096v127z" />
<glyph unicode="`" horiz-adv-x="493" d="M41 1434h219l90 -250h-117z" />
<glyph unicode="a" horiz-adv-x="829" d="M92 270q0 180 64 254q74 88 241 88q53 0 117 -6v107q0 57 -27 86q-31 33 -82 32.5t-81 -36.5q-25 -27 -27 -66h-195q-2 133 84 219q84 84 230 84q133 0 219 -82q84 -84 84 -239v-711h-205v100h-4q-29 -47 -70 -77q-49 -39 -118 -39q-98 0 -156 53q-74 69 -74 233z M297 299q0 -51 20 -84q29 -47 82 -47q49 0 82 34t33 97v143q-37 6 -72 7q-78 0 -114 -43q-31 -35 -31 -107z" />
<glyph unicode="b" d="M111 0v1434h204v-500q29 37 68 59q63 39 135 39q94 0 152 -59q59 -61 59 -172v-529q0 -147 -47 -211q-57 -78 -170 -77q-74 0 -125 34q-45 31 -70 72h-2v-90h-204zM315 319q0 -68 33 -102q33 -33 78 -33t72 31q27 29 26 92v412q0 53 -26 82q-27 31 -72 30.5t-78 -32.5 q-33 -35 -33 -103v-377z" />
<glyph unicode="c" horiz-adv-x="786" d="M102 342v350q0 178 95 264q84 76 211 76q154 0 235 -88q82 -84 82 -229v-6h-205v4q0 47 -22 80q-27 39 -82 38q-49 0 -80 -34q-29 -33 -29 -99v-393q0 -55 25 -86q29 -35 84 -35t82 35q23 29 22 82v2h205v-18q0 -143 -102 -232q-86 -70 -205 -69q-152 0 -236 88 q-39 39 -57.5 91t-20.5 85t-2 94z" />
<glyph unicode="d" d="M111 272v529q0 111 59 172q57 59 152 59q72 0 135 -39q39 -23 67 -59v500h205v-1434h-205v90h-2q-25 -41 -69 -72q-51 -35 -125 -34q-113 0 -170 77q-47 64 -47 211zM315 307q0 -63 27 -92q27 -31 72 -31t78 33q33 35 32 102v377q0 68 -32 103q-33 33 -78 32.5t-72 -30.5 q-27 -29 -27 -82v-412z" />
<glyph unicode="e" horiz-adv-x="813" d="M102 328v389q0 160 101 246q80 70 203 69q129 0 212 -74q102 -88 103 -260v-266h-414v-131q0 -61 27 -88q25 -29 78 -29t82 43q18 31 18 70h205v-8q0 -166 -115 -248q-80 -57 -190 -57q-147 0 -236 98q-74 82 -74 246zM307 590h209v133q0 51 -28.5 79.5t-75.5 28.5 q-51 0 -80 -34q-25 -29 -25 -82v-125z" />
<glyph unicode="f" horiz-adv-x="548" d="M51 852v164h107v135q0 150 78 219q74 63 219 64h73v-181h-41q-63 0 -96 -34q-31 -35 -31 -99v-104h166v-164h-164v-852h-204v852h-107z" />
<glyph unicode="g" horiz-adv-x="831" d="M102 -123h205q-2 -43 27 -76q27 -29 76 -28q57 0 84 39q23 33 22 108v172q-29 -37 -67 -59q-63 -39 -136 -39q-94 0 -151 59q-59 61 -60 172v518q0 147 48 211q57 78 169 78q74 0 125 -35q45 -31 70 -71h2v90h205v-1110q0 -160 -78 -242q-84 -92 -235 -92q-145 0 -228 94 q-72 82 -78 211zM307 307q0 -51 27 -82q29 -31 72 -30q45 0 77 32q33 35 33 103v366q0 68 -33 103q-33 33 -77 32q-43 0 -72 -30q-27 -31 -27 -92v-402z" />
<glyph unicode="h" d="M111 0v1434h204v-500q29 37 68 59q63 39 135 39q94 0 152 -59q59 -61 59 -172v-801h-205v719q0 53 -26 82q-27 31 -72 30.5t-78 -32.5q-33 -35 -33 -103v-696h-204z" />
<glyph unicode="i" horiz-adv-x="425" d="M111 0v1016h204v-1016h-204zM111 1204v201h204v-201h-204z" />
<glyph unicode="j" horiz-adv-x="430" d="M-31 -217h37q55 0 82 31q27 29 27 90v1112h204v-1112v-17q0 -49 -2 -77.5t-17 -73.5t-46 -78q-70 -76 -219 -76h-66v201zM115 1204v201h204v-201h-204z" />
<glyph unicode="k" horiz-adv-x="825" d="M111 0v1434h204v-861h4l246 443h205l-244 -414l293 -602h-221l-184 438l-99 -153v-285h-204z" />
<glyph unicode="l" horiz-adv-x="471" d="M111 279v1155h204v-1145q0 -51 29 -78q23 -20 66 -21h20v-190h-59q-141 0 -209 86q-51 64 -51 193z" />
<glyph unicode="m" horiz-adv-x="1245" d="M111 0v1016h204v-92q25 31 64 63q59 45 139 45q59 0 111 -33q49 -33 73 -88q39 63 91 93q49 29 112 28q125 0 185 -82q45 -63 45 -176v-774h-205v719q0 51 -27 82q-29 31 -69 30q-45 0 -76 -32q-33 -35 -33 -103v-696h-205v719q0 51 -26.5 81.5t-69.5 30.5q-45 0 -76 -32 q-33 -35 -33 -103v-696h-204z" />
<glyph unicode="n" d="M111 0v1016h204v-92q82 109 203 108q96 0 152 -59q59 -61 59 -172v-801h-205v719q0 53 -26 82q-27 31 -72 30.5t-78 -32.5q-33 -35 -33 -103v-696h-204z" />
<glyph unicode="o" horiz-adv-x="823" d="M102 328v360q0 186 101 273q84 72 209 71.5t209 -71.5q100 -86 100 -273v-360q0 -186 -100 -273q-84 -72 -209 -71.5t-209 71.5q-101 87 -101 273zM307 315q0 -68 31 -102q29 -29 74 -29t73 29q31 35 31 102v385q0 68 -31 103q-29 29 -73.5 28.5t-73.5 -28.5 q-31 -35 -31 -103v-385z" />
<glyph unicode="p" d="M111 -418v1434h204v-90h2q25 41 70 71q51 35 125 35q113 0 170 -78q47 -63 47 -211v-528q0 -111 -59 -172q-57 -59 -152 -59q-72 0 -135 39q-39 23 -68 59v-500h-204zM315 319q0 -68 33 -102q33 -33 78 -33t72 31q27 29 26 82v412q0 63 -26 92q-27 31 -72 30.5t-78 -32.5 q-33 -35 -33 -103v-377z" />
<glyph unicode="q" d="M111 215v528q0 147 47 211q57 78 170 78q74 0 125 -35q45 -31 69 -71h2v90h205v-1434h-205v500q-29 -37 -67 -59q-63 -39 -135 -39q-94 0 -152 59q-59 61 -59 172zM315 297q0 -53 27 -82q27 -31 72 -31t78 33q33 35 32 102v377q0 68 -32 103q-33 33 -78 32.5t-72 -30.5 q-27 -29 -27 -92v-412z" />
<glyph unicode="r" horiz-adv-x="608" d="M111 0v1016h204v-109l4 -2q102 127 269 127v-219q-20 6 -44 6q-19 0 -40 -4q-47 -8 -89 -27.5t-71 -74t-29 -131.5v-582h-204z" />
<glyph unicode="s" horiz-adv-x="759" d="M61 285h205q0 -49 27 -78q29 -33 84 -33q51 0 80 35q27 29 26 82q0 43 -20.5 72.5t-81.5 56.5l-121 51q-84 35 -127 86q-55 66 -55 172q0 141 76 221q82 82 219 82q160 0 237 -82q78 -78 78 -209h-201q-4 45 -30 74q-27 27 -74 27q-41 0 -70.5 -27t-29.5 -76 q0 -37 20 -65q23 -31 80 -53l123 -52q80 -31 131 -98q51 -66 51 -186q0 -119 -65 -199q-82 -102 -248 -102q-156 0 -238 90q-76 82 -76 211z" />
<glyph unicode="t" horiz-adv-x="522" d="M31 852v164h104v309h205v-309h131v-164h-131v-557q0 -61 29 -86q23 -18 75 -19h27v-190h-55q-156 0 -221 72q-59 63 -60 204v576h-104z" />
<glyph unicode="u" d="M111 215v801h204v-719q0 -59 25 -86q27 -27 66 -27q53 0 86 37q33 35 32 98v697h205v-1016h-205v102q-31 -45 -71 -75q-61 -43 -142 -43q-106 0 -159 75q-41 56 -41 156z" />
<glyph unicode="v" horiz-adv-x="731" d="M16 1016h215l138 -645h10l137 645h205l-270 -1016h-164z" />
<glyph unicode="w" horiz-adv-x="1116" d="M16 1016h209l131 -643l121 643h170l125 -643l127 643h205l-242 -1016h-174l-123 623h-10l-123 -623h-174z" />
<glyph unicode="x" horiz-adv-x="733" d="M14 0l250 518l-237 498h215l127 -289l127 289h215l-242 -498l254 -518h-215l-139 311l-140 -311h-215z" />
<glyph unicode="y" horiz-adv-x="761" d="M20 1016h222l166 -631h8l127 631h205l-279 -1153q-39 -164 -94 -217q-66 -63 -205 -64h-53l-4 191h39q66 0 96 43q18 23 37 98l32 133z" />
<glyph unicode="z" horiz-adv-x="694" d="M51 0v168l363 674h-336v174h565v-148l-375 -694h375v-174h-592z" />
<glyph unicode="{" horiz-adv-x="544" d="M20 416v184q117 -2 156 98q18 43 19 140v249q0 166 75 252q80 94 222 95h32v-164h-20q-57 0 -88 -35q-37 -39 -37 -133v-266q0 -160 -49 -238q-43 -68 -127 -90q84 -23 127 -90q49 -78 49 -238v-266q0 -168 125 -168h20v-164h-32q-137 0 -222 94q-76 84 -75 252v250 q0 96 -19 139q-39 101 -156 99z" />
<glyph unicode="|" horiz-adv-x="389" d="M123 -418v1872h143v-1872h-143z" />
<glyph unicode="}" horiz-adv-x="544" d="M20 -254h21q125 0 125 168v266q0 160 49 238q43 68 127 90q-84 23 -127 90q-49 78 -49 238v266q0 94 -37 133q-31 35 -88 35h-21v164h33q141 0 221 -95q76 -86 76 -252v-249q0 -96 19 -140q39 -100 155 -98v-184q-117 2 -155 -99q-18 -43 -19 -139v-250q0 -168 -76 -252 q-84 -94 -221 -94h-33v164z" />
<glyph unicode="~" horiz-adv-x="905" d="M111 500v6q0 94 39 156q51 82 159 81q47 0 127 -26l41 -15q66 -25 92 -24q43 0 64 27q18 27 18 61h144v-6q0 -94 -39 -156q-51 -82 -160 -82q-47 0 -127 27l-41 14q-66 25 -92 25q-43 0 -64 -27q-18 -27 -18 -61h-143z" />
<glyph unicode="&#xa4;" horiz-adv-x="1212" d="M104 332l152 151q-61 98 -61 217t61 218l-152 149l129 131l152 -151q86 66 221 65.5t221 -65.5l152 151l129 -131l-152 -149q61 -78 61.5 -217.5t-61.5 -217.5l152 -151l-129 -129l-152 151q-92 -66 -221 -65.5t-221 65.5l-152 -151zM354 700q0 -104 74 -177.5 t178.5 -73.5t178 73.5t73.5 177.5q0 102 -73.5 177t-178 75t-178.5 -75t-74 -177z" />
<glyph unicode="&#xa6;" horiz-adv-x="389" d="M123 334h143v-752h-143v752zM123 702v752h143v-752h-143z" />
<glyph unicode="&#xa7;" horiz-adv-x="831" d="M72 739q0 86 55 154q25 29 80 68q-90 82 -90 208q0 137 106 211q78 53 197 54q141 0 229 -88q82 -82 82 -209v-27h-194v18q0 35 -23 66q-27 39 -92 39q-43 0 -66 -19q-35 -25 -34 -69q0 -18 7 -35.5t16 -28t26.5 -24t27.5 -18.5l33 -16l27 -13l84 -43q129 -68 176 -140 q41 -63 41 -153q0 -78 -45 -142q-35 -45 -90 -79q90 -90 90 -209q0 -135 -107 -211q-78 -53 -196 -53q-141 0 -230 88q-82 82 -82 208v27h195v-18q0 -35 22 -66q27 -39 93 -39q43 0 65 19q35 25 35 69q0 18 -7 36t-16.5 28t-27 23.5t-27.5 18.5l-33 16l-26 13l-84 43 q-129 68 -176 140q-41 65 -41 153zM276 745q0 -41 25 -71q18 -25 86 -62l96 -49q31 20 49 45q23 35 23 66q0 43 -25 74q-18 25 -86 61l-100 51q-35 -27 -53 -59q-15 -27 -15 -56z" />
<glyph unicode="&#xa8;" horiz-adv-x="737" d="M111 1204v195h194v-195h-194zM432 1204v195h195v-195h-195z" />
<glyph unicode="&#xa9;" horiz-adv-x="1396" d="M92 848q0 250 178.5 428t428 178t428 -178t178.5 -428t-178.5 -428t-428 -178t-428 178t-178.5 428zM219 848q0 -201 140.5 -340t339 -139t339 139t140.5 340t-140.5 340t-339 139t-339 -139t-140.5 -340zM475 735v226q0 109 64 159q61 51 159.5 51t159.5 -51 q63 -51 64 -159v-19h-156v21q0 35 -14 51q-18 23 -53 22.5t-54 -22.5q-14 -16 -14 -51v-230q0 -35 14 -51q18 -23 53 -23q37 0 56 23q12 14 12 51v21h156v-19q0 -109 -64 -160q-61 -51 -159.5 -51t-159.5 51q-64 51 -64 160z" />
<glyph unicode="&#xaa;" horiz-adv-x="829" d="M92 270q0 180 64 254q74 88 241 88q53 0 117 -6v107q0 57 -27 86q-31 33 -82 32.5t-81 -36.5q-25 -27 -27 -66h-195q-2 133 84 219q84 84 230 84q133 0 219 -82q84 -84 84 -239v-711h-205v100h-4q-29 -47 -70 -77q-49 -39 -118 -39q-98 0 -156 53q-74 69 -74 233z M297 299q0 -51 20 -84q29 -47 82 -47q49 0 82 34t33 97v143q-37 6 -72 7q-78 0 -114 -43q-31 -35 -31 -107z" />
<glyph unicode="&#xab;" horiz-adv-x="917" d="M72 567l415 414v-209l-206 -205l206 -205v-208zM451 567l415 414v-209l-207 -205l207 -205v-208z" />
<glyph unicode="&#xac;" horiz-adv-x="1404" d="M289 668v125h835v-461h-163v336h-672z" />
<glyph unicode="&#xad;" horiz-adv-x="643" d="M92 535v184h459v-184h-459z" />
<glyph unicode="&#xae;" horiz-adv-x="1396" d="M92 848q0 250 178.5 428t428 178t428 -178t178.5 -428t-178.5 -428t-428 -178t-428 178t-178.5 428zM219 848q0 -201 140.5 -340t339 -139t339 139t140.5 340t-140.5 340t-339 139t-339 -139t-140.5 -340zM494 524v647h225q102 0 158 -41q63 -47 63 -145v-39 q0 -76 -39 -117q-14 -18 -47 -32l115 -273h-168l-92 240h-60v-240h-155zM649 897h56q43 0 61 18.5t18 49.5q0 39 -22 55q-20 16 -57 16h-56v-139z" />
<glyph unicode="&#xb0;" horiz-adv-x="675" d="M51 1112q0 125 86 207q82 80 201 80q127 0 209 -88q78 -82 78 -199t-70 -192q-84 -94 -217 -95q-117 0 -195 72q-92 84 -92 215zM174 1112q0 -68 48 -116t116 -48t116 48t48 116t-48 116t-116 48t-116 -48t-48 -116z" />
<glyph unicode="&#xb1;" horiz-adv-x="1052" d="M123 0v164h807v-164h-807zM123 514v164h321v321h164v-321h322v-164h-322v-260h-164v260h-321z" />
<glyph unicode="&#xb2;" horiz-adv-x="851" d="M111 0v188l362 668q35 72 45 107q16 61 17 122v31q0 68 -31 105q-29 33 -80 32q-61 0 -90 -49q-18 -33 -19 -117v-55h-204v84q0 162 88 254q82 84 229 84q158 0 238 -98q74 -90 73 -232v-75q0 -74 -18 -131q-14 -49 -51 -115l-324 -608h393v-195h-628z" />
<glyph unicode="&#xb3;" horiz-adv-x="856" d="M113 264v146h204v-95q0 -63 27 -98q29 -37 86 -37q109 0 109 123v213q0 70 -29 102q-25 29 -90 29h-49v182h47q57 0 88 31q33 33 33 94v183q0 53 -33 86q-27 31 -82 30q-45 0 -76 -36.5t-31 -104.5v-82h-204v125q0 145 100 229q82 70 209 70q137 0 217 -65 q104 -84 104 -234v-207q0 -160 -125 -211q78 -33 101.5 -99.5t23.5 -158.5v-137q0 -102 -14 -162.5t-70 -116.5q-84 -84 -241 -83q-143 0 -223 77q-82 78 -82 207z" />
<glyph unicode="&#xb4;" horiz-adv-x="493" d="M143 1184l90 250h220l-193 -250h-117z" />
<glyph unicode="&#xb5;" horiz-adv-x="860" d="M111 -418v1434h204v-719q0 -57 31 -86q27 -27 70 -27q57 0 94 37q35 35 35 98v697h205v-1016h-205v102q-49 -119 -150 -118q-41 0 -80 26v-428h-204z" />
<glyph unicode="&#x3bc;" horiz-adv-x="860" d="M111 -418v1434h204v-719q0 -57 31 -86q27 -27 70 -27q57 0 94 37q35 35 35 98v697h205v-1016h-205v102q-49 -119 -150 -118q-41 0 -80 26v-428h-204z" />
<glyph unicode="&#xb6;" horiz-adv-x="1003" d="M76 887v246q0 150 96 225q88 76 240 76h561v-144h-125v-1708h-148v1708h-151v-1708h-148v1006h-24q-137 0 -219 80t-82 219z" />
<glyph unicode="&#xb7;" horiz-adv-x="696" d="M205 716.5q0 59.5 42 101.5t101.5 42t101.5 -42t42 -101.5t-42 -101.5t-101.5 -42t-101.5 42t-42 101.5z" />
<glyph unicode="&#x2219;" horiz-adv-x="696" d="M205 716.5q0 59.5 42 101.5t101.5 42t101.5 -42t42 -101.5t-42 -101.5t-101.5 -42t-101.5 42t-42 101.5z" />
<glyph unicode="&#xb9;" horiz-adv-x="856" d="M154 1055v211l229 168h197v-1434h-205v1214z" />
<glyph unicode="&#xba;" horiz-adv-x="823" d="M102 328v360q0 186 101 273q84 72 209 71.5t209 -71.5q100 -86 100 -273v-360q0 -186 -100 -273q-84 -72 -209 -71.5t-209 71.5q-101 87 -101 273zM307 315q0 -68 31 -102q29 -29 74 -29t73 29q31 35 31 102v385q0 68 -31 103q-29 29 -73.5 28.5t-73.5 -28.5 q-31 -35 -31 -103v-385z" />
<glyph unicode="&#xbb;" horiz-adv-x="917" d="M51 154v208l207 205l-207 205v209l416 -414zM430 154v208l207 205l-207 205v209l416 -414z" />
<glyph unicode="&#xc0;" horiz-adv-x="878" d="M172 1827h219l90 -250h-117zM20 0l314 1434h180l313 -1434h-204l-68 307h-262l-68 -307h-205zM313 489h217l-110 545z" />
<glyph unicode="&#xc1;" horiz-adv-x="878" d="M364 1577l90 250h220l-193 -250h-117zM20 0l314 1434h180l313 -1434h-204l-68 307h-262l-68 -307h-205zM313 489h217l-110 545z" />
<glyph unicode="&#xc2;" horiz-adv-x="878" d="M-88 1577l445 879h135l444 -879h-164l-348 694l-348 -694h-164zM20 0l314 1434h180l313 -1434h-204l-68 307h-262l-68 -307h-205zM313 489h217l-110 545z" />
<glyph unicode="&#xc3;" horiz-adv-x="878" d="M82 1577v6q0 94 39 156q51 82 159 81q47 0 127 -26l41 -15q66 -25 92 -24q43 0 64 27q18 27 18 61h144v-6q0 -94 -39 -156q-51 -82 -160 -82q-47 0 -127 27l-41 14q-66 25 -92 25q-43 0 -64 -27q-18 -27 -18 -61h-143zM20 0l314 1434h180l313 -1434h-204l-68 307h-262 l-68 -307h-205zM313 489h217l-110 545z" />
<glyph unicode="&#xc4;" horiz-adv-x="878" d="M166 1577v195h194v-195h-194zM487 1577v195h195v-195h-195zM20 0l314 1434h180l313 -1434h-204l-68 307h-262l-68 -307h-205zM313 489h217l-110 545z" />
<glyph unicode="&#xc5;" horiz-adv-x="878" d="M137 1722q0 125 86 207q82 80 201 80q127 0 209 -88q78 -82 78 -199t-70 -192q-84 -94 -217 -95q-117 0 -195 72q-92 84 -92 215zM260 1722q0 -68 48 -116t116 -48t116 48t48 116t-48 116t-116 48t-116 -48t-48 -116zM20 0l314 1434h180l313 -1434h-204l-68 307h-262 l-68 -307h-205zM313 489h217l-110 545z" />
<glyph unicode="&#xc8;" horiz-adv-x="808" d="M176 1827h219l90 -250h-117zM123 0v1434h608v-195h-403v-422h356v-184h-356v-438h409v-195h-614z" />
<glyph unicode="&#xc9;" horiz-adv-x="808" d="M368 1577l90 250h220l-193 -250h-117zM123 0v1434h608v-195h-403v-422h356v-184h-356v-438h409v-195h-614z" />
<glyph unicode="&#xca;" horiz-adv-x="808" d="M-84 1577l445 879h135l444 -879h-164l-348 694l-348 -694h-164zM123 0v1434h608v-195h-403v-422h356v-184h-356v-438h409v-195h-614z" />
<glyph unicode="&#xcb;" horiz-adv-x="808" d="M168 1577v195h194v-195h-194zM489 1577v195h195v-195h-195zM123 0v1434h608v-195h-403v-422h356v-184h-356v-438h409v-195h-614z" />
<glyph unicode="&#xcc;" horiz-adv-x="450" d="M-25 1827h219l90 -250h-117zM123 0v1434h205v-1434h-205z" />
<glyph unicode="&#xcd;" horiz-adv-x="450" d="M168 1577l90 250h220l-193 -250h-117zM123 0v1434h205v-1434h-205z" />
<glyph unicode="&#xce;" horiz-adv-x="450" d="M-287 1577l445 879h135l444 -879h-164l-348 694l-348 -694h-164zM123 0v1434h205v-1434h-205z" />
<glyph unicode="&#xcf;" horiz-adv-x="450" d="M-32 1577v195h194v-195h-194zM289 1577v195h195v-195h-195zM123 0v1434h205v-1434h-205z" />
<glyph unicode="&#xd1;" horiz-adv-x="997" d="M156 1577v6q0 94 39 156q51 82 159 81q47 0 127 -26l41 -15q66 -25 92 -24q43 0 64 27q18 27 18 61h144v-6q0 -94 -39 -156q-51 -82 -160 -82q-47 0 -127 27l-41 14q-66 25 -92 25q-43 0 -64 -27q-18 -27 -18 -61h-143zM123 0v1434h205l342 -902v902h204v-1434h-204 l-342 901v-901h-205z" />
<glyph unicode="&#xd2;" horiz-adv-x="946" d="M221 1827h219l90 -250h-117zM115 377v680q0 100 19.5 171.5t86.5 133.5q98 92 252 92t252 -92q68 -61 87 -133t19 -172v-680q0 -100 -19 -172t-87 -133q-98 -92 -252 -92t-252 92q-68 61 -87 133t-19 172zM319 346q0 -82 43 -125q41 -41 111 -41t111 41q43 43 43 125v741 q0 82 -43 125q-41 41 -111 41t-111 -41q-43 -43 -43 -125v-741z" />
<glyph unicode="&#xd3;" horiz-adv-x="946" d="M413 1577l90 250h220l-193 -250h-117zM115 377v680q0 100 19.5 171.5t86.5 133.5q98 92 252 92t252 -92q68 -61 87 -133t19 -172v-680q0 -100 -19 -172t-87 -133q-98 -92 -252 -92t-252 92q-68 61 -87 133t-19 172zM319 346q0 -82 43 -125q41 -41 111 -41t111 41 q43 43 43 125v741q0 82 -43 125q-41 41 -111 41t-111 -41q-43 -43 -43 -125v-741z" />
<glyph unicode="&#xd4;" horiz-adv-x="946" d="M-39 1577l445 879h135l444 -879h-164l-348 694l-348 -694h-164zM115 377v680q0 100 19.5 171.5t86.5 133.5q98 92 252 92t252 -92q68 -61 87 -133t19 -172v-680q0 -100 -19 -172t-87 -133q-98 -92 -252 -92t-252 92q-68 61 -87 133t-19 172zM319 346q0 -82 43 -125 q41 -41 111 -41t111 41q43 43 43 125v741q0 82 -43 125q-41 41 -111 41t-111 -41q-43 -43 -43 -125v-741z" />
<glyph unicode="&#xd5;" horiz-adv-x="946" d="M131 1577v6q0 94 39 156q51 82 159 81q47 0 127 -26l41 -15q66 -25 92 -24q43 0 64 27q18 27 18 61h144v-6q0 -94 -39 -156q-51 -82 -160 -82q-47 0 -127 27l-41 14q-66 25 -92 25q-43 0 -64 -27q-18 -27 -18 -61h-143zM115 377v680q0 100 19.5 171.5t86.5 133.5 q98 92 252 92t252 -92q68 -61 87 -133t19 -172v-680q0 -100 -19 -172t-87 -133q-98 -92 -252 -92t-252 92q-68 61 -87 133t-19 172zM319 346q0 -82 43 -125q41 -41 111 -41t111 41q43 43 43 125v741q0 82 -43 125q-41 41 -111 41t-111 -41q-43 -43 -43 -125v-741z" />
<glyph unicode="&#xd6;" horiz-adv-x="946" d="M215 1577v195h194v-195h-194zM536 1577v195h195v-195h-195zM115 377v680q0 100 19.5 171.5t86.5 133.5q98 92 252 92t252 -92q68 -61 87 -133t19 -172v-680q0 -100 -19 -172t-87 -133q-98 -92 -252 -92t-252 92q-68 61 -87 133t-19 172zM319 346q0 -82 43 -125 q41 -41 111 -41t111 41q43 43 43 125v741q0 82 -43 125q-41 41 -111 41t-111 -41q-43 -43 -43 -125v-741z" />
<glyph unicode="&#xd9;" horiz-adv-x="929" d="M213 1827h219l90 -250h-117zM123 377v1057h205v-1088q0 -76 35.5 -121t101 -45t101.5 45t36 121v1088h205v-1057q0 -113 -31 -195t-83 -124t-108.5 -60t-120 -18t-119.5 18t-108.5 60t-83 124t-30.5 195z" />
<glyph unicode="&#xda;" horiz-adv-x="929" d="M405 1577l90 250h220l-193 -250h-117zM123 377v1057h205v-1088q0 -76 35.5 -121t101 -45t101.5 45t36 121v1088h205v-1057q0 -113 -31 -195t-83 -124t-108.5 -60t-120 -18t-119.5 18t-108.5 60t-83 124t-30.5 195z" />
<glyph unicode="&#xdb;" horiz-adv-x="929" d="M-47 1577l445 879h135l444 -879h-164l-348 694l-348 -694h-164zM123 377v1057h205v-1088q0 -76 35.5 -121t101 -45t101.5 45t36 121v1088h205v-1057q0 -113 -31 -195t-83 -124t-108.5 -60t-120 -18t-119.5 18t-108.5 60t-83 124t-30.5 195z" />
<glyph unicode="&#xdc;" horiz-adv-x="929" d="M207 1577v195h194v-195h-194zM528 1577v195h195v-195h-195zM123 377v1057h205v-1088q0 -76 35.5 -121t101 -45t101.5 45t36 121v1088h205v-1057q0 -113 -31 -195t-83 -124t-108.5 -60t-120 -18t-119.5 18t-108.5 60t-83 124t-30.5 195z" />
<glyph unicode="&#xdd;" horiz-adv-x="847" d="M364 1577l90 250h220l-193 -250h-117zM20 1434h226l178 -570h12l174 570h217l-301 -830v-604h-204v610z" />
<glyph unicode="&#xe0;" horiz-adv-x="829" d="M164 1405h219l90 -250h-117zM92 270q0 180 64 254q74 88 241 88q53 0 117 -6v107q0 57 -27 86q-31 33 -82 32.5t-81 -36.5q-25 -27 -27 -66h-195q-2 133 84 219q84 84 230 84q133 0 219 -82q84 -84 84 -239v-711h-205v100h-4q-29 -47 -70 -77q-49 -39 -118 -39 q-98 0 -156 53q-74 69 -74 233zM297 299q0 -51 20 -84q29 -47 82 -47q49 0 82 34t33 97v143q-37 6 -72 7q-78 0 -114 -43q-31 -35 -31 -107z" />
<glyph unicode="&#xe1;" horiz-adv-x="829" d="M356 1155l90 250h220l-193 -250h-117zM92 270q0 180 64 254q74 88 241 88q53 0 117 -6v107q0 57 -27 86q-31 33 -82 32.5t-81 -36.5q-25 -27 -27 -66h-195q-2 133 84 219q84 84 230 84q133 0 219 -82q84 -84 84 -239v-711h-205v100h-4q-29 -47 -70 -77q-49 -39 -118 -39 q-98 0 -156 53q-74 69 -74 233zM297 299q0 -51 20 -84q29 -47 82 -47q49 0 82 34t33 97v143q-37 6 -72 7q-78 0 -114 -43q-31 -35 -31 -107z" />
<glyph unicode="&#xe2;" horiz-adv-x="829" d="M-96 1155l445 879h135l444 -879h-164l-348 694l-348 -694h-164zM92 270q0 180 64 254q74 88 241 88q53 0 117 -6v107q0 57 -27 86q-31 33 -82 32.5t-81 -36.5q-25 -27 -27 -66h-195q-2 133 84 219q84 84 230 84q133 0 219 -82q84 -84 84 -239v-711h-205v100h-4 q-29 -47 -70 -77q-49 -39 -118 -39q-98 0 -156 53q-74 69 -74 233zM297 299q0 -51 20 -84q29 -47 82 -47q49 0 82 34t33 97v143q-37 6 -72 7q-78 0 -114 -43q-31 -35 -31 -107z" />
<glyph unicode="&#xe3;" horiz-adv-x="829" d="M74 1155v6q0 94 39 156q51 82 159 81q47 0 127 -26l41 -15q66 -25 92 -24q43 0 64 27q18 27 18 61h144v-6q0 -94 -39 -156q-51 -82 -160 -82q-47 0 -127 27l-41 14q-66 25 -92 25q-43 0 -64 -27q-18 -27 -18 -61h-143zM92 270q0 180 64 254q74 88 241 88q53 0 117 -6v107 q0 57 -27 86q-31 33 -82 32.5t-81 -36.5q-25 -27 -27 -66h-195q-2 133 84 219q84 84 230 84q133 0 219 -82q84 -84 84 -239v-711h-205v100h-4q-29 -47 -70 -77q-49 -39 -118 -39q-98 0 -156 53q-74 69 -74 233zM297 299q0 -51 20 -84q29 -47 82 -47q49 0 82 34t33 97v143 q-37 6 -72 7q-78 0 -114 -43q-31 -35 -31 -107z" />
<glyph unicode="&#xe4;" horiz-adv-x="829" d="M158 1155v195h194v-195h-194zM479 1155v195h195v-195h-195zM92 270q0 180 64 254q74 88 241 88q53 0 117 -6v107q0 57 -27 86q-31 33 -82 32.5t-81 -36.5q-25 -27 -27 -66h-195q-2 133 84 219q84 84 230 84q133 0 219 -82q84 -84 84 -239v-711h-205v100h-4 q-29 -47 -70 -77q-49 -39 -118 -39q-98 0 -156 53q-74 69 -74 233zM297 299q0 -51 20 -84q29 -47 82 -47q49 0 82 34t33 97v143q-37 6 -72 7q-78 0 -114 -43q-31 -35 -31 -107z" />
<glyph unicode="&#xe5;" horiz-adv-x="829" d="M129 1442q0 125 86 207q82 80 201 80q127 0 209 -88q78 -82 78 -199t-70 -192q-84 -94 -217 -95q-117 0 -195 72q-92 84 -92 215zM252 1442q0 -68 48 -116t116 -48t116 48t48 116t-48 116t-116 48t-116 -48t-48 -116zM92 270q0 180 64 254q74 88 241 88q53 0 117 -6v107 q0 57 -27 86q-31 33 -82 32.5t-81 -36.5q-25 -27 -27 -66h-195q-2 133 84 219q84 84 230 84q133 0 219 -82q84 -84 84 -239v-711h-205v100h-4q-29 -47 -70 -77q-49 -39 -118 -39q-98 0 -156 53q-74 69 -74 233zM297 299q0 -51 20 -84q29 -47 82 -47q49 0 82 34t33 97v143 q-37 6 -72 7q-78 0 -114 -43q-31 -35 -31 -107z" />
<glyph unicode="&#xe8;" horiz-adv-x="813" d="M156 1405h219l90 -250h-117zM102 328v389q0 160 101 246q80 70 203 69q129 0 212 -74q102 -88 103 -260v-266h-414v-131q0 -61 27 -88q25 -29 78 -29t82 43q18 31 18 70h205v-8q0 -166 -115 -248q-80 -57 -190 -57q-147 0 -236 98q-74 82 -74 246zM307 590h209v133 q0 51 -28.5 79.5t-75.5 28.5q-51 0 -80 -34q-25 -29 -25 -82v-125z" />
<glyph unicode="&#xe9;" horiz-adv-x="813" d="M348 1155l90 250h220l-193 -250h-117zM102 328v389q0 160 101 246q80 70 203 69q129 0 212 -74q102 -88 103 -260v-266h-414v-131q0 -61 27 -88q25 -29 78 -29t82 43q18 31 18 70h205v-8q0 -166 -115 -248q-80 -57 -190 -57q-147 0 -236 98q-74 82 -74 246zM307 590h209 v133q0 51 -28.5 79.5t-75.5 28.5q-51 0 -80 -34q-25 -29 -25 -82v-125z" />
<glyph unicode="&#xea;" horiz-adv-x="813" d="M-107 1155l445 879h135l444 -879h-164l-348 694l-348 -694h-164zM102 328v389q0 160 101 246q80 70 203 69q129 0 212 -74q102 -88 103 -260v-266h-414v-131q0 -61 27 -88q25 -29 78 -29t82 43q18 31 18 70h205v-8q0 -166 -115 -248q-80 -57 -190 -57q-147 0 -236 98 q-74 82 -74 246zM307 590h209v133q0 51 -28.5 79.5t-75.5 28.5q-51 0 -80 -34q-25 -29 -25 -82v-125z" />
<glyph unicode="&#xeb;" horiz-adv-x="813" d="M148 1155v195h194v-195h-194zM469 1155v195h195v-195h-195zM102 328v389q0 160 101 246q80 70 203 69q129 0 212 -74q102 -88 103 -260v-266h-414v-131q0 -61 27 -88q25 -29 78 -29t82 43q18 31 18 70h205v-8q0 -166 -115 -248q-80 -57 -190 -57q-147 0 -236 98 q-74 82 -74 246zM307 590h209v133q0 51 -28.5 79.5t-75.5 28.5q-51 0 -80 -34q-25 -29 -25 -82v-125z" />
<glyph unicode="&#xec;" horiz-adv-x="425" d="M-37 1405h219l90 -250h-117zM111 0v1016h204v-1016h-204z" />
<glyph unicode="&#xed;" horiz-adv-x="425" d="M155 1155l90 250h220l-193 -250h-117zM111 0v1016h204v-1016h-204z" />
<glyph unicode="&#xee;" horiz-adv-x="425" d="M-299 1155l445 879h135l444 -879h-164l-348 694l-348 -694h-164zM111 0v1016h204v-1016h-204z" />
<glyph unicode="&#xef;" horiz-adv-x="425" d="M-45 1155v195h194v-195h-194zM276 1155v195h195v-195h-195zM111 0v1016h204v-1016h-204z" />
<glyph unicode="&#xf1;" d="M78 1155v6q0 94 39 156q51 82 159 81q47 0 127 -26l41 -15q66 -25 92 -24q43 0 64 27q18 27 18 61h144v-6q0 -94 -39 -156q-51 -82 -160 -82q-47 0 -127 27l-41 14q-66 25 -92 25q-43 0 -64 -27q-18 -27 -18 -61h-143zM111 0v1016h204v-92q82 109 203 108q96 0 152 -59 q59 -61 59 -172v-801h-205v719q0 53 -26 82q-27 31 -72 30.5t-78 -32.5q-33 -35 -33 -103v-696h-204z" />
<glyph unicode="&#xf2;" horiz-adv-x="823" d="M160 1405h219l90 -250h-117zM102 328v360q0 186 101 273q84 72 209 71.5t209 -71.5q100 -86 100 -273v-360q0 -186 -100 -273q-84 -72 -209 -71.5t-209 71.5q-101 87 -101 273zM307 315q0 -68 31 -102q29 -29 74 -29t73 29q31 35 31 102v385q0 68 -31 103 q-29 29 -73.5 28.5t-73.5 -28.5q-31 -35 -31 -103v-385z" />
<glyph unicode="&#xf3;" horiz-adv-x="823" d="M352 1155l90 250h220l-193 -250h-117zM102 328v360q0 186 101 273q84 72 209 71.5t209 -71.5q100 -86 100 -273v-360q0 -186 -100 -273q-84 -72 -209 -71.5t-209 71.5q-101 87 -101 273zM307 315q0 -68 31 -102q29 -29 74 -29t73 29q31 35 31 102v385q0 68 -31 103 q-29 29 -73.5 28.5t-73.5 -28.5q-31 -35 -31 -103v-385z" />
<glyph unicode="&#xf4;" horiz-adv-x="823" d="M-101 1155l445 879h135l444 -879h-164l-348 694l-348 -694h-164zM102 328v360q0 186 101 273q84 72 209 71.5t209 -71.5q100 -86 100 -273v-360q0 -186 -100 -273q-84 -72 -209 -71.5t-209 71.5q-101 87 -101 273zM307 315q0 -68 31 -102q29 -29 74 -29t73 29 q31 35 31 102v385q0 68 -31 103q-29 29 -73.5 28.5t-73.5 -28.5q-31 -35 -31 -103v-385z" />
<glyph unicode="&#xf5;" horiz-adv-x="823" d="M70 1155v6q0 94 39 156q51 82 159 81q47 0 127 -26l41 -15q66 -25 92 -24q43 0 64 27q18 27 18 61h144v-6q0 -94 -39 -156q-51 -82 -160 -82q-47 0 -127 27l-41 14q-66 25 -92 25q-43 0 -64 -27q-18 -27 -18 -61h-143zM102 328v360q0 186 101 273q84 72 209 71.5 t209 -71.5q100 -86 100 -273v-360q0 -186 -100 -273q-84 -72 -209 -71.5t-209 71.5q-101 87 -101 273zM307 315q0 -68 31 -102q29 -29 74 -29t73 29q31 35 31 102v385q0 68 -31 103q-29 29 -73.5 28.5t-73.5 -28.5q-31 -35 -31 -103v-385z" />
<glyph unicode="&#xf6;" horiz-adv-x="823" d="M154 1155v195h194v-195h-194zM475 1155v195h195v-195h-195zM102 328v360q0 186 101 273q84 72 209 71.5t209 -71.5q100 -86 100 -273v-360q0 -186 -100 -273q-84 -72 -209 -71.5t-209 71.5q-101 87 -101 273zM307 315q0 -68 31 -102q29 -29 74 -29t73 29q31 35 31 102 v385q0 68 -31 103q-29 29 -73.5 28.5t-73.5 -28.5q-31 -35 -31 -103v-385z" />
<glyph unicode="&#xf9;" d="M168 1405h219l90 -250h-117zM111 215v801h204v-719q0 -59 25 -86q27 -27 66 -27q53 0 86 37q33 35 32 98v697h205v-1016h-205v102q-31 -45 -71 -75q-61 -43 -142 -43q-106 0 -159 75q-41 56 -41 156z" />
<glyph unicode="&#xfa;" d="M360 1155l90 250h220l-193 -250h-117zM111 215v801h204v-719q0 -59 25 -86q27 -27 66 -27q53 0 86 37q33 35 32 98v697h205v-1016h-205v102q-31 -45 -71 -75q-61 -43 -142 -43q-106 0 -159 75q-41 56 -41 156z" />
<glyph unicode="&#xfb;" d="M-92 1155l445 879h135l444 -879h-164l-348 694l-348 -694h-164zM111 215v801h204v-719q0 -59 25 -86q27 -27 66 -27q53 0 86 37q33 35 32 98v697h205v-1016h-205v102q-31 -45 -71 -75q-61 -43 -142 -43q-106 0 -159 75q-41 56 -41 156z" />
<glyph unicode="&#xfc;" d="M162 1155v195h194v-195h-194zM483 1155v195h195v-195h-195zM111 215v801h204v-719q0 -59 25 -86q27 -27 66 -27q53 0 86 37q33 35 32 98v697h205v-1016h-205v102q-31 -45 -71 -75q-61 -43 -142 -43q-106 0 -159 75q-41 56 -41 156z" />
<glyph unicode="&#xfd;" horiz-adv-x="761" d="M325 1155l90 250h220l-193 -250h-117zM20 1016h222l166 -631h8l127 631h205l-279 -1153q-39 -164 -94 -217q-66 -63 -205 -64h-53l-4 191h39q66 0 96 43q18 23 37 98l32 133z" />
<glyph unicode="&#xff;" horiz-adv-x="761" d="M127 1155v195h194v-195h-194zM448 1155v195h195v-195h-195zM20 1016h222l166 -631h8l127 631h205l-279 -1153q-39 -164 -94 -217q-66 -63 -205 -64h-53l-4 191h39q66 0 96 43q18 23 37 98l32 133z" />
<glyph unicode="&#x131;" horiz-adv-x="425" d="M111 0v1016h204v-1016h-204z" />
<glyph unicode="&#x152;" horiz-adv-x="1755" d="M1069 0v1434h608v-195h-403v-422h356v-184h-356v-438h409v-195h-614zM115 377v680q0 100 19.5 171.5t86.5 133.5q98 92 252 92t252 -92q68 -61 87 -133t19 -172v-680q0 -100 -19 -172t-87 -133q-98 -92 -252 -92t-252 92q-68 61 -87 133t-19 172zM319 346q0 -82 43 -125 q41 -41 111 -41t111 41q43 43 43 125v741q0 82 -43 125q-41 41 -111 41t-111 -41q-43 -43 -43 -125v-741z" />
<glyph unicode="&#x153;" horiz-adv-x="1636" d="M925 328v389q0 160 101 246q80 70 203 69q129 0 212 -74q102 -88 103 -260v-266h-414v-131q0 -61 27 -88q25 -29 78 -29t82 43q18 31 18 70h205v-8q0 -166 -115 -248q-80 -57 -190 -57q-147 0 -236 98q-74 82 -74 246zM1130 590h209v133q0 51 -28.5 79.5t-75.5 28.5 q-51 0 -80 -34q-25 -29 -25 -82v-125zM102 328v360q0 186 101 273q84 72 209 71.5t209 -71.5q100 -86 100 -273v-360q0 -186 -100 -273q-84 -72 -209 -71.5t-209 71.5q-101 87 -101 273zM307 315q0 -68 31 -102q29 -29 74 -29t73 29q31 35 31 102v385q0 68 -31 103 q-29 29 -73.5 28.5t-73.5 -28.5q-31 -35 -31 -103v-385z" />
<glyph unicode="&#x178;" horiz-adv-x="847" d="M166 1577v195h194v-195h-194zM487 1577v195h195v-195h-195zM20 1434h226l178 -570h12l174 570h217l-301 -830v-604h-204v610z" />
<glyph unicode="&#x2c6;" horiz-adv-x="1208" d="M92 555l445 879h135l444 -879h-164l-348 694l-348 -694h-164z" />
<glyph unicode="&#x2000;" horiz-adv-x="1226" />
<glyph unicode="&#x2001;" horiz-adv-x="2455" />
<glyph unicode="&#x2002;" horiz-adv-x="1226" />
<glyph unicode="&#x2003;" horiz-adv-x="2455" />
<glyph unicode="&#x2004;" horiz-adv-x="817" />
<glyph unicode="&#x2005;" horiz-adv-x="612" />
<glyph unicode="&#x2006;" horiz-adv-x="407" />
<glyph unicode="&#x2007;" horiz-adv-x="407" />
<glyph unicode="&#x2008;" horiz-adv-x="305" />
<glyph unicode="&#x2009;" horiz-adv-x="489" />
<glyph unicode="&#x200a;" horiz-adv-x="135" />
<glyph unicode="&#x2010;" horiz-adv-x="643" d="M92 535v184h459v-184h-459z" />
<glyph unicode="&#x2011;" horiz-adv-x="643" d="M92 535v184h459v-184h-459z" />
<glyph unicode="&#x2012;" horiz-adv-x="643" d="M92 535v184h459v-184h-459z" />
<glyph unicode="&#x2013;" horiz-adv-x="927" d="M123 537v163h682v-163h-682z" />
<glyph unicode="&#x2014;" horiz-adv-x="1312" d="M72 555v127h1169v-127h-1169z" />
<glyph unicode="&#x2018;" horiz-adv-x="389" d="M72 1067v215l215 225v-440h-215z" />
<glyph unicode="&#x2019;" horiz-adv-x="409" d="M72 993v441h215v-215z" />
<glyph unicode="&#x201a;" horiz-adv-x="389" d="M102 215h215v-215l-215 -225v440z" />
<glyph unicode="&#x201c;" horiz-adv-x="755" d="M72 1067v215l215 225v-440h-215zM438 1067v215l215 225v-440h-215z" />
<glyph unicode="&#x201d;" horiz-adv-x="776" d="M72 993v441h215v-215zM438 993v441h215v-215z" />
<glyph unicode="&#x201e;" horiz-adv-x="755" d="M102 215h215v-215l-215 -225v440zM469 215h215v-215l-215 -225v440z" />
<glyph unicode="&#x2022;" horiz-adv-x="901" d="M205 716.5q0 102.5 71.5 174.5t174 72t174 -72t71.5 -174.5t-71.5 -174t-174 -71.5t-174 71.5t-71.5 174z" />
<glyph unicode="&#x2026;" horiz-adv-x="1064" d="M72 0v205h204v-205h-204zM440 0v205h205v-205h-205zM788 0v205h205v-205h-205z" />
<glyph unicode="&#x202f;" horiz-adv-x="489" />
<glyph unicode="&#x2039;" horiz-adv-x="538" d="M72 567l415 414v-209l-206 -205l206 -205v-208z" />
<glyph unicode="&#x203a;" horiz-adv-x="538" d="M51 154v208l207 205l-207 205v209l416 -414z" />
<glyph unicode="&#x205f;" horiz-adv-x="612" />
<glyph unicode="&#x20ac;" horiz-adv-x="856" d="M37 492l43 161h72q-4 37 -5 70q0 10 1.5 32.5t1.5 32.5h-113l43 162h84q49 504 395 504q154 0 229 -57v-199q-70 66 -194 66q-203 0 -227 -314h364l-43 -162h-336q0 -10 -1 -32.5t-1 -32.5q0 -12 1 -35.5t1 -34.5h297l-45 -161h-237q25 -322 227 -322q125 0 194 66v-203 q-63 -51 -229 -51q-342 0 -393 510h-129z" />
<glyph unicode="&#x2122;" horiz-adv-x="1492" d="M72 1278v156h508v-156h-164v-559h-180v559h-164zM688 719v715h166l170 -398l170 398h166v-715h-170v375l-115 -277h-102l-115 277v-375h-170z" />
<glyph unicode="&#xe000;" horiz-adv-x="1014" d="M0 1015h1015v-1015h-1015v1015z" />
<glyph unicode="&#xfb01;" horiz-adv-x="974" d="M660 0v1016h204v-1016h-204zM660 1204v201h204v-201h-204zM51 852v164h107v135q0 150 78 219q74 63 219 64h73v-181h-41q-63 0 -96 -34q-31 -35 -31 -99v-104h166v-164h-164v-852h-204v852h-107z" />
<glyph unicode="&#xfb02;" horiz-adv-x="1019" d="M660 279v1155h204v-1145q0 -51 29 -78q23 -20 66 -21h20v-190h-59q-141 0 -209 86q-51 64 -51 193zM51 852v164h107v135q0 150 78 219q74 63 219 64h73v-181h-41q-63 0 -96 -34q-31 -35 -31 -99v-104h166v-164h-164v-852h-204v852h-107z" />
<glyph unicode="&#xfb03;" horiz-adv-x="1523" d="M1209 0v1016h204v-1016h-204zM1209 1204v201h204v-201h-204zM600 852v164h107v135q0 150 78 219q74 63 219 64h73v-181h-41q-63 0 -96 -34q-31 -35 -31 -99v-104h166v-164h-164v-852h-204v852h-107zM51 852v164h107v135q0 150 78 219q74 63 219 64h73v-181h-41 q-63 0 -96 -34q-31 -35 -31 -99v-104h166v-164h-164v-852h-204v852h-107z" />
<glyph unicode="&#xfb04;" horiz-adv-x="1568" d="M1209 279v1155h204v-1145q0 -51 29 -78q23 -20 66 -21h20v-190h-59q-141 0 -209 86q-51 64 -51 193zM600 852v164h107v135q0 150 78 219q74 63 219 64h73v-181h-41q-63 0 -96 -34q-31 -35 -31 -99v-104h166v-164h-164v-852h-204v852h-107zM51 852v164h107v135 q0 150 78 219q74 63 219 64h73v-181h-41q-63 0 -96 -34q-31 -35 -31 -99v-104h166v-164h-164v-852h-204v852h-107z" />
</font>
</defs>
</svg>
